<svg width="18" height="16" viewBox="0 0 18 16" fill="none" xmlns="http://www.w3.org/2000/svg">
  <path
    d="M3.68827 1.68682C5.03136 1.07288 6.83602 1.23547 8.551 3.01727C8.66882 3.13968 8.8314 3.20885 9.0013 3.20885C9.1712 3.20885 9.3338 3.13968 9.4516 3.01727C11.1666 1.23547 12.9712 1.07288 14.3143 1.68682C15.6968 2.31876 16.7096 3.82185 16.7096 5.61424C16.7096 7.4454 15.9603 8.8569 14.8861 10.0665C14.0007 11.0634 12.9289 11.8897 11.8837 12.6955C11.6354 12.8869 11.3887 13.0771 11.1463 13.2682C10.7079 13.6138 10.3169 13.9171 9.94 14.1373C9.5629 14.3577 9.2593 14.4583 9.0013 14.4583C8.7433 14.4583 8.43975 14.3577 8.06264 14.1373C7.68574 13.9171 7.2947 13.6138 6.85634 13.2682C6.61393 13.0771 6.36717 12.8869 6.11891 12.6955C5.07367 11.8897 4.00191 11.0634 3.11654 10.0665C2.04232 8.8569 1.29297 7.4454 1.29297 5.61424C1.29297 3.82185 2.30578 2.31876 3.68827 1.68682ZM9.0013 1.71567C7.07459 -0.00813925 4.9171 -0.24929 3.1686 0.54995C1.3219 1.39409 0.0429688 3.35418 0.0429688 5.61424C0.0429688 7.83551 0.968379 9.53 2.1819 10.8965C3.1537 11.9908 4.34316 12.9066 5.39366 13.7155C5.63179 13.8988 5.86279 14.0767 6.08248 14.2499C6.50935 14.5864 6.96759 14.9452 7.43199 15.2166C7.89618 15.4878 8.42597 15.7083 9.0013 15.7083C9.5766 15.7083 10.1064 15.4878 10.5706 15.2166C11.035 14.9452 11.4933 14.5864 11.9201 14.2499C12.1398 14.0767 12.3708 13.8988 12.6089 13.7155C13.6594 12.9066 14.8489 11.9908 15.8207 10.8965C17.0342 9.53 17.9596 7.83551 17.9596 5.61424C17.9596 3.35418 16.6807 1.39409 14.834 0.54995C13.0855 -0.24929 10.928 -0.00813925 9.0013 1.71567Z"
    fill="#80878E" />
</svg>
  