<svg width="30" height="30" viewBox="0 0 30 30" fill="none" xmlns="http://www.w3.org/2000/svg">
  <path
    d="M15.3346 2.77891C14.7208 2.6746 13.8839 2.66669 12.3744 2.66669C9.8188 2.66669 8.0023 2.6688 6.6251 2.85312C5.27592 3.03369 4.50067 3.3724 3.93717 3.9359C3.37289 4.50018 3.03467 5.27304 2.85431 6.61449C2.67009 7.98471 2.66797 9.7909 2.66797 12.3334V17.6667C2.66797 20.2091 2.67009 22.0153 2.85431 23.3856C3.03467 24.727 3.37289 25.4999 3.93717 26.0642C4.50145 26.6284 5.27431 26.9667 6.61577 27.147C7.98599 27.3312 9.7922 27.3334 12.3346 27.3334H17.668C20.2104 27.3334 22.0166 27.3312 23.3868 27.147C24.7283 26.9667 25.5012 26.6284 26.0654 26.0642C26.6297 25.4999 26.9679 24.727 27.1483 23.3856C27.3325 22.0153 27.3346 20.2091 27.3346 17.6667V17.0839C27.3346 15.0359 27.3203 14.065 27.1029 13.3334H22.9297C21.4193 13.3334 20.185 13.3334 19.2105 13.2024C18.1919 13.0655 17.3088 12.7691 16.6038 12.0642C15.8989 11.3592 15.6025 10.4761 15.4656 9.4575C15.3346 8.48303 15.3346 7.24872 15.3346 5.73828V2.77891ZM17.3346 3.81263V5.66669C17.3346 7.26631 17.3368 8.36543 17.4478 9.191C17.5549 9.9878 17.7467 10.3786 18.0181 10.6499C18.2894 10.9213 18.6802 11.1131 19.477 11.2202C20.3026 11.3312 21.4017 11.3334 23.0013 11.3334H25.6939C25.2987 10.95 24.7923 10.4906 24.1346 9.8987L18.8563 5.14818C18.2091 4.56573 17.7274 4.13579 17.3346 3.81263ZM12.5686 0.666659C14.4147 0.666169 15.6074 0.665849 16.7052 1.0871C17.8029 1.50834 18.6855 2.30309 20.051 3.53269C20.0982 3.57514 20.1459 3.61811 20.1942 3.6616L25.4726 8.41212C25.5287 8.4627 25.5843 8.51263 25.6391 8.56195C27.2173 9.9815 28.2379 10.8994 28.7868 12.132C29.3357 13.3646 29.3353 14.7372 29.3347 16.8599C29.3347 16.9336 29.3346 17.0083 29.3346 17.0839V17.7419C29.3347 20.1923 29.3347 22.1331 29.1305 23.6521C28.9203 25.2153 28.4775 26.4806 27.4796 27.4784C26.4818 28.4762 25.2166 28.919 23.6533 29.1292C22.1344 29.3334 20.1935 29.3334 17.7432 29.3334H12.2594C9.8091 29.3334 7.86823 29.3334 6.34927 29.1292C4.78604 28.919 3.52078 28.4762 2.52296 27.4784C1.52514 26.4806 1.08232 25.2153 0.872149 23.6521C0.667929 22.1331 0.667949 20.1923 0.667969 17.7419V12.2581C0.667949 9.8078 0.667929 7.86695 0.872149 6.348C1.08232 4.78477 1.52514 3.5195 2.52296 2.52168C3.52156 1.52309 4.79106 1.08075 6.3598 0.870789C7.88507 0.666659 9.8356 0.666669 12.2993 0.666689H12.3744C12.4399 0.666689 12.5046 0.666679 12.5686 0.666659Z"
    fill="#4DBAC0" />
</svg>
  