<svg width="20" height="20" viewBox="0 0 20 20" fill="none" xmlns="http://www.w3.org/2000/svg">
  <g clip-path="url(#clip0_466_46255)">
    <path fill-rule="evenodd" clip-rule="evenodd"
      d="M9.58464 2.29167C5.55756 2.29167 2.29297 5.55626 2.29297 9.58333C2.29297 13.6104 5.55756 16.875 9.58464 16.875C13.6117 16.875 16.8763 13.6104 16.8763 9.58333C16.8763 5.55626 13.6117 2.29167 9.58464 2.29167ZM1.04297 9.58333C1.04297 4.8659 4.8672 1.04167 9.58464 1.04167C14.3021 1.04167 18.1263 4.8659 18.1263 9.58333C18.1263 11.7171 17.3439 13.6681 16.0504 15.1652L18.7766 17.8914C19.0207 18.1355 19.0207 18.5312 18.7766 18.7753C18.5325 19.0194 18.1368 19.0194 17.8927 18.7753L15.1665 16.0491C13.6694 17.3426 11.7184 18.125 9.58464 18.125C4.8672 18.125 1.04297 14.3008 1.04297 9.58333Z"
      fill="#80878E" stroke="#80878E" stroke-linecap="round" />
  </g>
  <defs>
    <clipPath id="clip0_466_46255">
      <rect width="20" height="20" fill="white" />
    </clipPath>
  </defs>
</svg>
  