<svg width="79" height="86" viewBox="0 0 79 86" fill="none" xmlns="http://www.w3.org/2000/svg">
  <path
    d="M28.5 31C28.5 24.9249 33.4249 20 39.5 20C45.5751 20 50.5 24.9249 50.5 31C50.5 37.0751 45.5751 42 39.5 42C33.4249 42 28.5 37.0751 28.5 31ZM39.5 26C36.7386 26 34.5 28.2386 34.5 31C34.5 33.7614 36.7386 36 39.5 36C42.2614 36 44.5 33.7614 44.5 31C44.5 28.2386 42.2614 26 39.5 26Z"
    fill="#80878E" />
  <path
    d="M39.5 44C34.717 44 30.2384 44.963 26.8447 46.6599C23.6303 48.267 20.5 51.0424 20.5 55L20.4995 55.2499C20.4934 57.2914 20.483 60.7288 23.7409 63.087C25.2527 64.1813 27.2476 64.8793 29.7188 65.3239C32.2128 65.7726 35.4089 66 39.5 66C43.5911 66 46.7872 65.7726 49.2812 65.3239C51.7524 64.8793 53.7473 64.1813 55.2591 63.087C58.517 60.7288 58.5066 57.2914 58.5005 55.2499L58.5 55C58.5 51.0424 55.3697 48.267 52.1553 46.6599C48.7616 44.963 44.283 44 39.5 44ZM26.5 55C26.5 54.5393 26.9514 53.3147 29.5279 52.0264C31.925 50.8279 35.4465 50 39.5 50C43.5535 50 47.075 50.8279 49.4721 52.0264C52.0486 53.3147 52.5 54.5393 52.5 55C52.5 57.4179 52.3461 57.7887 51.7409 58.2267C51.2527 58.5801 50.2476 59.0537 48.2188 59.4187C46.2128 59.7796 43.4089 60 39.5 60C35.5911 60 32.7872 59.7796 30.7812 59.4187C28.7524 59.0537 27.7473 58.5801 27.2591 58.2267C26.6539 57.7887 26.5 57.4179 26.5 55Z"
    fill="#80878E" />
  <path
    d="M26.3936 3.20446C32.1693 1.22633 35.7499 0 39.5 0C43.2501 0 46.8307 1.22633 52.6065 3.20447L55.5162 4.20053C61.4415 6.2288 66.0144 7.7941 69.2879 9.1239C70.9369 9.7938 72.3545 10.4427 73.4961 11.1056C74.5946 11.7436 75.6967 12.5394 76.4455 13.6062C77.1856 14.6606 77.5683 15.957 77.8087 17.2049C78.0588 18.5022 78.2095 20.0585 78.3068 21.8454C78.5 25.3936 78.5 30.2544 78.5 36.5593V42.9654C78.5 67.3696 60.0679 79.0701 49.1067 83.8583L48.9982 83.9056C47.6391 84.4995 46.3615 85.0578 44.8936 85.4336C43.3437 85.8303 41.697 86 39.5 86C37.303 86 35.6563 85.8303 34.1064 85.4336C32.6385 85.0578 31.3609 84.4995 30.0017 83.9056L29.8933 83.8582C18.9321 79.0701 0.5 67.3696 0.5 42.9654V36.5596C0.5 30.2551 0.5 25.3935 0.6932 21.8454C0.7905 20.0585 0.94125 18.5022 1.1913 17.2049C1.4317 15.957 1.8144 14.6606 2.5545 13.6062C3.3033 12.5394 4.4054 11.7436 5.5039 11.1056C6.6455 10.4427 8.0631 9.7938 9.7121 9.1239C12.9856 7.7941 17.5585 6.2288 23.4838 4.20055L26.3936 3.20446ZM39.5 6C36.869 6 34.2806 6.8465 27.8225 9.0572L25.5312 9.8415C19.4808 11.9126 15.0684 13.4242 11.9704 14.6827C10.424 15.311 9.3036 15.8374 8.5171 16.2941C8.1289 16.5196 7.8613 16.7057 7.6827 16.8509C7.5312 16.9741 7.4734 17.0438 7.4652 17.0539C7.4574 17.0665 7.4077 17.1496 7.3377 17.3461C7.2578 17.5706 7.1692 17.8924 7.0829 18.3402C6.9082 19.2468 6.7758 20.4921 6.6843 22.1717C6.5011 25.5364 6.5 30.2333 6.5 36.6666V42.9654C6.5 63.6658 21.9796 73.8538 32.2951 78.3599C33.7811 79.009 34.6391 79.3764 35.5944 79.621C36.5067 79.8545 37.62 80 39.5 80C41.38 80 42.4933 79.8545 43.4056 79.621C44.3609 79.3765 45.2189 79.009 46.7048 78.36C57.0204 73.8538 72.5 63.6658 72.5 42.9654V36.6666C72.5 30.2333 72.4989 25.5364 72.3157 22.1717C72.2242 20.4921 72.0918 19.2468 71.9171 18.3402C71.8308 17.8924 71.7422 17.5706 71.6623 17.3461C71.5922 17.1495 71.5425 17.0664 71.5348 17.0539C71.5265 17.0437 71.4687 16.9739 71.3173 16.8509C71.1386 16.7057 70.8711 16.5196 70.4828 16.2941C69.6964 15.8374 68.576 15.311 67.0296 14.6827C63.9316 13.4242 59.5192 11.9126 53.4688 9.8415L51.1775 9.0572C44.7194 6.8465 42.131 6 39.5 6Z"
    fill="#80878E" />
</svg>
  