<svg width="14" height="16" viewBox="0 0 14 16" fill="none" xmlns="http://www.w3.org/2000/svg">
  <path
    d="M9 0.833344H6.29572C5.07055 0.833333 4.10013 0.833325 3.34065 0.935434C2.55904 1.04052 1.9264 1.26193 1.4275 1.76084C0.92859 2.25975 0.70718 2.89238 0.60209 3.674C0.49998 4.43347 0.49999 5.40389 0.5 6.62906V10.6667C0.5 11.9148 1.4147 12.9494 2.61034 13.1365C2.70232 13.6458 2.87835 14.0806 3.23223 14.4344C3.63351 14.8357 4.13876 15.0083 4.73883 15.089C5.31681 15.1667 6.05169 15.1667 6.96342 15.1667H9.0366C9.9483 15.1667 10.6832 15.1667 11.2612 15.089C11.8612 15.0083 12.3665 14.8357 12.7678 14.4344C13.169 14.0332 13.3416 13.5279 13.4223 12.9278C13.5 12.3499 13.5 11.615 13.5 10.7033V7.29677C13.5 6.38504 13.5 5.65016 13.4223 5.07218C13.3416 4.4721 13.169 3.96686 12.7678 3.56558C12.4139 3.2117 11.9791 3.03567 11.4698 2.94369C11.2827 1.74804 10.2482 0.833344 9 0.833344ZM10.4196 2.84746C10.0129 2.83333 9.5531 2.83334 9.0366 2.83334H6.96342C6.05169 2.83333 5.31681 2.83332 4.73883 2.91103C4.13876 2.9917 3.63351 3.1643 3.23223 3.56558C2.83096 3.96686 2.65836 4.4721 2.57768 5.07218C2.49998 5.65016 2.49999 6.38503 2.5 7.29676V10.7033C2.49999 11.2198 2.49999 11.6796 2.51411 12.0862C1.92416 11.8844 1.5 11.325 1.5 10.6667V6.66668C1.5 5.39546 1.50106 4.49235 1.59317 3.80724C1.68335 3.13652 1.85246 2.75009 2.1346 2.46795C2.41674 2.18581 2.80317 2.01669 3.4739 1.92652C4.15901 1.83441 5.06212 1.83334 6.33333 1.83334H9C9.6584 1.83334 10.2177 2.2575 10.4196 2.84746ZM3.93934 4.27268C4.12385 4.08818 4.3829 3.96788 4.87208 3.90211C5.37565 3.83441 6.04306 3.83334 7 3.83334H9C9.9569 3.83334 10.6244 3.83441 11.1279 3.90211C11.6171 3.96788 11.8762 4.08818 12.0607 4.27268C12.2452 4.45719 12.3655 4.71624 12.4312 5.20542C12.4989 5.70899 12.5 6.3764 12.5 7.33334V10.6667C12.5 11.6236 12.4989 12.291 12.4312 12.7946C12.3655 13.2838 12.2452 13.5428 12.0607 13.7273C11.8762 13.9118 11.6171 14.0321 11.1279 14.0979C10.6244 14.1656 9.9569 14.1667 9 14.1667H7C6.04306 14.1667 5.37565 14.1656 4.87208 14.0979C4.3829 14.0321 4.12385 13.9118 3.93934 13.7273C3.75483 13.5428 3.63453 13.2838 3.56877 12.7946C3.50106 12.291 3.5 11.6236 3.5 10.6667V7.33334C3.5 6.3764 3.50106 5.70899 3.56877 5.20542C3.63453 4.71624 3.75483 4.45719 3.93934 4.27268Z"
    fill="#80878E" />
</svg>
  