<svg width="18" height="16" viewBox="0 0 18 16" fill="none" xmlns="http://www.w3.org/2000/svg">
  <path
    d="M0.667969 5.61425C0.667969 9.6667 4.01749 11.8262 6.46941 13.7591C7.33464 14.4411 8.16797 15.0833 9.0013 15.0833C9.8346 15.0833 10.668 14.4411 11.5332 13.7591C13.9851 11.8262 17.3346 9.6667 17.3346 5.61425C17.3346 1.5618 12.7512 -1.31211 9.0013 2.58386C5.25144 -1.31211 0.667969 1.5618 0.667969 5.61425Z"
    fill="white" />
  <path
    d="M9.0013 2.58386L8.64106 2.93059C8.73532 3.02852 8.86538 3.08386 9.0013 3.08386C9.1372 3.08386 9.2673 3.02852 9.3615 2.93059L9.0013 2.58386ZM6.77895 13.3664C5.52333 12.3766 4.12837 11.3941 3.02308 10.1495C1.93492 8.9242 1.16797 7.48443 1.16797 5.61425H0.167969C0.167969 7.79651 1.07578 9.4627 2.27536 10.8135C3.45781 12.145 4.96358 13.2087 6.15987 14.1517L6.77895 13.3664ZM1.16797 5.61425C1.16797 3.77509 2.20739 2.2263 3.6363 1.57314C5.03369 0.934391 6.89409 1.11556 8.64106 2.93059L9.3615 2.23713C7.35865 0.156191 5.05238 -0.173669 3.22057 0.663651C1.42028 1.48657 0.167969 3.40096 0.167969 5.61425H1.16797ZM6.15987 14.1517C6.58788 14.4891 7.0394 14.8424 7.49505 15.1087C7.95054 15.3748 8.4577 15.5833 9.0013 15.5833V14.5833C8.71157 14.5833 8.3854 14.4707 7.99958 14.2453C7.61392 14.0199 7.21617 13.7111 6.77895 13.3664L6.15987 14.1517ZM11.8427 14.1517C13.039 13.2087 14.5448 12.145 15.7272 10.8135C16.9268 9.4627 17.8346 7.79651 17.8346 5.61425H16.8346C16.8346 7.48443 16.0677 8.9242 14.9795 10.1495C13.8742 11.3941 12.4793 12.3766 11.2236 13.3664L11.8427 14.1517ZM17.8346 5.61425C17.8346 3.40096 16.5823 1.48657 14.782 0.663651C12.9502 -0.173669 10.644 0.156191 8.64106 2.23713L9.3615 2.93059C11.1085 1.11556 12.9689 0.934391 14.3663 1.57314C15.7952 2.2263 16.8346 3.77509 16.8346 5.61425H17.8346ZM11.2236 13.3664C10.7864 13.7111 10.3887 14.0199 10.003 14.2453C9.6172 14.4707 9.291 14.5833 9.0013 14.5833V15.5833C9.5449 15.5833 10.0521 15.3748 10.5076 15.1087C10.9632 14.8424 11.4147 14.4891 11.8427 14.1517L11.2236 13.3664Z"
    fill="black" />
</svg>
  