<svg width="81" height="80" viewBox="0 0 81 80" fill="none" xmlns="http://www.w3.org/2000/svg">
  <path
    d="M80.5 40C80.5 17.9086 62.5914 0 40.5 0C18.4086 0 0.5 17.9086 0.5 40C0.5 62.0914 18.4086 80 40.5 80C62.5914 80 80.5 62.0914 80.5 40ZM56.6213 27.8787C57.7929 29.0503 57.7929 30.9497 56.6213 32.1213L36.6213 52.1213C35.4497 53.2929 33.5503 53.2929 32.3787 52.1213L24.3787 44.1213C23.2071 42.9497 23.2071 41.0503 24.3787 39.8787C25.5503 38.7071 27.4497 38.7071 28.6213 39.8787L34.5 45.7574L43.4393 36.818L52.3787 27.8787C53.5503 26.7071 55.4497 26.7071 56.6213 27.8787Z"
    fill="#6DD23D" />
</svg>
  