<svg width="97" height="96" viewBox="0 0 97 96" fill="none" xmlns="http://www.w3.org/2000/svg">
  <circle cx="48.5" cy="48" r="40" fill="white" />
  <path fill-rule="evenodd" clip-rule="evenodd"
    d="M88.5 48C88.5 70.0914 70.5914 88 48.5 88C26.4086 88 8.5 70.0914 8.5 48C8.5 25.9086 26.4086 8 48.5 8C70.5914 8 88.5 25.9086 88.5 48ZM64.6213 35.8787C65.7929 37.0503 65.7929 38.9497 64.6213 40.1213L44.6213 60.1213C43.4497 61.2929 41.5503 61.2929 40.3787 60.1213L32.3787 52.1213C31.2071 50.9497 31.2071 49.0503 32.3787 47.8787C33.5503 46.7071 35.4497 46.7071 36.6213 47.8787L42.5 53.7574L51.4393 44.818L60.3787 35.8787C61.5503 34.7071 63.4497 34.7071 64.6213 35.8787Z"
    fill="#6DD23D" />
</svg>
  