<svg width="23" height="22" viewBox="0 0 23 22" fill="none" xmlns="http://www.w3.org/2000/svg">
  <path
    d="M5.07801 4.34262C5.42094 4.67095 5.92593 5.2461 6.37411 5.96185C6.86212 6.74121 7.24861 7.63293 7.32782 8.51448C7.52692 10.7306 9.0365 12.7231 11.4918 12.75C12.0441 12.756 12.5928 12.5625 13.0126 12.2241C13.4375 11.8817 13.7681 11.355 13.7664 10.706C13.7656 10.3946 13.7148 10.0892 13.6402 9.8177C13.5936 9.6481 13.5961 9.4897 13.6748 9.3273C13.8997 8.86363 14.2338 8.55655 14.6656 8.27123C14.8631 8.14077 15.0683 8.02278 15.2963 7.8916C15.3265 7.87428 15.357 7.85672 15.3879 7.83888C15.644 7.6913 15.9263 7.52578 16.1975 7.33094C16.6095 7.03492 17.1059 6.64313 17.3618 6.25475C17.6475 5.82114 17.9104 5.21256 18.0732 4.6196C18.0823 4.5866 18.0912 4.55304 18.0999 4.51898C19.739 6.18797 20.75 8.47592 20.75 11C20.75 11.3638 20.729 11.7227 20.6881 12.0756C20.671 12.133 20.6543 12.1903 20.6377 12.2475C20.5069 12.6971 20.3779 13.1404 20.0363 13.5836C19.6364 14.1025 18.8829 14.6464 17.2104 14.6638L17.2019 14.6639L17.167 14.6644C17.1377 14.6649 17.0966 14.666 17.0452 14.668C16.9423 14.6721 16.7972 14.6801 16.6211 14.6959C16.2708 14.7273 15.789 14.7904 15.2689 14.9182C14.2762 15.1622 12.9261 15.6955 12.274 16.9243C11.6474 18.1051 11.6752 19.3307 11.8807 20.2423C11.7544 20.2474 11.6275 20.25 11.5 20.25C6.39137 20.25 2.25 16.1086 2.25 11C2.25 8.38581 3.33444 6.02492 5.07801 4.34262ZM6.24505 3.38662C7.73748 2.35455 9.5481 1.75 11.5 1.75C13.449 1.75 15.2573 2.35281 16.7485 3.38216C16.7581 3.56036 16.7296 3.84787 16.6267 4.2225C16.4969 4.69533 16.2917 5.15255 16.1092 5.42947C16.026 5.55581 15.7533 5.80305 15.3222 6.11277C15.1182 6.25939 14.8941 6.39218 14.6389 6.5393C14.6097 6.55613 14.58 6.57322 14.5498 6.59055C14.326 6.71918 14.0779 6.86171 13.8388 7.01971C13.2808 7.38838 12.7102 7.87891 12.3252 8.67271C12.0553 9.2292 12.0726 9.7736 12.1937 10.2148C12.2398 10.3825 12.266 10.5544 12.2664 10.7099C12.2667 10.8158 12.2165 10.9393 12.0714 11.0562C11.9212 11.1772 11.7108 11.2523 11.5082 11.25C10.0349 11.234 8.97276 10.0605 8.8218 8.38025C8.71374 7.17759 8.20296 6.05616 7.64544 5.16579C7.18084 4.42381 6.6601 3.80462 6.24505 3.38662ZM22.1792 12.2403C22.226 11.8333 22.25 11.4195 22.25 11C22.25 5.06294 17.4371 0.25 11.5 0.25C5.56294 0.25 0.75 5.06294 0.75 11C0.75 16.9371 5.56294 21.75 11.5 21.75C16.9604 21.75 21.4699 17.6789 22.1588 12.4064C22.1771 12.3429 22.1929 12.29 22.2071 12.2501L22.1792 12.2403ZM19.4047 15.8066C18.0931 17.9589 15.9274 19.5334 13.3784 20.0592C13.2085 19.4196 13.1435 18.4857 13.599 17.6274C13.935 16.9942 14.7257 16.5964 15.6269 16.3749C16.0537 16.27 16.4571 16.2166 16.7552 16.1899C16.9034 16.1766 17.0233 16.1701 17.1044 16.1668C17.1449 16.1652 17.1755 16.1645 17.195 16.1641L17.2156 16.1638H17.2182H17.2261C18.0912 16.1547 18.8091 16.0249 19.4047 15.8066Z"
    fill="black" />
</svg>
  