<svg width="79" height="72" viewBox="0 0 79 72" fill="none" xmlns="http://www.w3.org/2000/svg">
  <path
    d="M26.5 3C26.5 1.3431 27.8431 0 29.5 0H49.5C51.1569 0 52.5 1.3431 52.5 3C52.5 4.6569 51.1569 6 49.5 6H29.5C27.8431 6 26.5 4.6569 26.5 3ZM31.3331 10.0009H47.6657C53.1426 10.0008 57.4822 10.0008 60.9476 10.3533C64.4982 10.7145 67.4624 11.4705 70.0552 13.203C72.1298 14.5892 73.9111 16.3704 75.2973 18.4451C77.0297 21.0378 77.7859 24.0016 78.1472 27.5521C78.5001 31.0188 78.5 35.3603 78.5 40.8404V41.1662C78.5 46.6431 78.5001 50.9828 78.1475 54.4482C77.7863 57.9988 77.0304 60.963 75.2979 63.5558C73.9117 65.6304 72.1304 67.4117 70.0558 68.7979C67.463 70.5304 64.4988 71.2863 60.9482 71.6475C57.4828 72.0001 53.1431 72 47.6662 72H31.3338C25.8569 72 21.5172 72.0001 18.0518 71.6475C14.5012 71.2863 11.537 70.5304 8.9442 68.7979C6.8696 67.4117 5.0883 65.6304 3.7021 63.5558C1.9696 60.963 1.2137 57.9988 0.852471 54.4482C0.499941 50.9828 0.499971 46.6432 0.500001 41.1663V40.8262C0.499971 35.3519 0.49994 31.0141 0.8524 27.55C1.2135 24.0006 1.9693 21.0374 3.7015 18.4451C5.0877 16.3704 6.869 14.5892 8.9436 13.203C11.5365 11.4705 14.5006 10.7145 18.0512 10.3533C21.5166 10.0008 25.8562 10.0008 31.3331 10.0009ZM18.6584 16.3225C15.5822 16.6355 13.7197 17.2278 12.277 18.1918C10.8575 19.1402 9.6388 20.359 8.6903 21.7785C7.7266 23.2208 7.1344 25.0826 6.8216 28.1573C6.5036 31.2822 6.5 35.3148 6.5 40.9926V41C6.5 46.6803 6.5036 50.7147 6.8217 53.841C7.1346 56.9172 7.7269 58.7797 8.6909 60.2224C9.6394 61.6419 10.8581 62.8606 12.2776 63.8091C13.7203 64.7731 15.5828 65.3654 18.659 65.6783C21.7853 65.9964 25.8197 66 31.5 66H47.5C53.1803 66 57.2147 65.9964 60.341 65.6783C63.4172 65.3654 65.2797 64.7731 66.7224 63.8091C68.1419 62.8606 69.3606 61.6419 70.3091 60.2224C71.2731 58.7797 71.8654 56.9172 72.1783 53.841C72.4964 50.7147 72.5 46.6803 72.5 41C72.5 35.3198 72.4962 31.2856 72.1781 28.1596C71.865 25.0838 71.2726 23.2213 70.3085 21.7785C69.36 20.359 68.1413 19.1402 66.7218 18.1918C65.2791 17.2278 63.4166 16.6355 60.3404 16.3225C57.2141 16.0045 53.1797 16.0009 47.4994 16.0009H31.4994C25.8191 16.0009 21.7847 16.0045 18.6584 16.3225ZM39.5 32C34.5294 32 30.5 36.0294 30.5 41C30.5 45.9706 34.5294 50 39.5 50C44.4706 50 48.5 45.9706 48.5 41C48.5 36.0294 44.4706 32 39.5 32ZM24.5 41C24.5 32.7157 31.2157 26 39.5 26C47.7843 26 54.5 32.7157 54.5 41C54.5 49.2843 47.7843 56 39.5 56C31.2157 56 24.5 49.2843 24.5 41ZM58.5 29C58.5 27.3431 59.8431 26 61.5 26H63.5C65.1569 26 66.5 27.3431 66.5 29C66.5 30.6569 65.1569 32 63.5 32H61.5C59.8431 32 58.5 30.6569 58.5 29Z"
    fill="#4DBAC0" />
</svg>
  