<svg width="21" height="20" viewBox="0 0 21 20" fill="none" xmlns="http://www.w3.org/2000/svg">
  <path
    d="M0.819981 5.82274C0.300781 6.77128 0.300781 7.91549 0.300781 10.2039V11.725C0.300781 15.6258 0.300781 17.5763 1.47235 18.7881C2.64393 20 4.52954 20 8.3008 20H12.3008C16.072 20 17.9576 20 19.1292 18.7881C20.3008 17.5763 20.3008 15.6258 20.3008 11.725V10.2039C20.3008 7.91549 20.3008 6.77128 19.7816 5.82274C19.2624 4.87421 18.3138 4.28551 16.4167 3.10812L14.4167 1.86687C12.4114 0.62229 11.4087 0 10.3008 0C9.1928 0 8.1902 0.62229 6.18481 1.86687L4.18481 3.10813C2.28773 4.28551 1.33918 4.87421 0.819981 5.82274ZM9.5508 16V13C9.5508 12.5858 9.8866 12.25 10.3008 12.25C10.715 12.25 11.0508 12.5858 11.0508 13V16C11.0508 16.4142 10.715 16.75 10.3008 16.75C9.8866 16.75 9.5508 16.4142 9.5508 16Z"
    fill="#4DBAC0" />
</svg>
  