<svg width="22" height="20" viewBox="0 0 22 20" fill="none" xmlns="http://www.w3.org/2000/svg">
  <path
    d="M4.624 2.42422C6.236 1.68752 8.402 1.88262 10.46 4.02072C10.601 4.16762 10.796 4.25062 11 4.25062C11.204 4.25062 11.399 4.16762 11.54 4.02072C13.598 1.88262 15.764 1.68752 17.376 2.42422C19.035 3.18252 20.25 4.98622 20.25 7.13712C20.25 9.33452 19.351 11.0282 18.062 12.4798C16.999 13.6761 15.713 14.6676 14.459 15.6346C14.161 15.8643 13.865 16.0926 13.574 16.3219C13.048 16.7366 12.579 17.1005 12.126 17.3648C11.674 17.6293 11.31 17.75 11 17.75C10.69 17.75 10.326 17.6293 9.874 17.3648C9.421 17.1005 8.952 16.7366 8.426 16.3219C8.135 16.0926 7.839 15.8643 7.541 15.6346C6.287 14.6676 5.001 13.6761 3.938 12.4798C2.6492 11.0282 1.75 9.33452 1.75 7.13712C1.75 4.98622 2.9654 3.18252 4.624 2.42422ZM11 2.45882C8.688 0.39022 6.099 0.10092 4.001 1.06002C1.7847 2.07292 0.25 4.42502 0.25 7.13712C0.25 9.80262 1.3605 11.8361 2.8167 13.4758C3.983 14.7889 5.41 15.888 6.671 16.8586C6.957 17.0786 7.234 17.292 7.497 17.4999C8.01 17.9037 8.56 18.3343 9.117 18.6599C9.674 18.9854 10.31 19.25 11 19.25C11.69 19.25 12.326 18.9854 12.883 18.6599C13.44 18.3343 13.99 17.9037 14.503 17.4999C14.766 17.292 15.043 17.0786 15.329 16.8586C16.59 15.888 18.017 14.7889 19.183 13.4758C20.64 11.8361 21.75 9.80262 21.75 7.13712C21.75 4.42502 20.215 2.07292 17.999 1.06002C15.901 0.10092 13.312 0.39022 11 2.45882Z"
    fill="black" />
  <path
    d="M4.624 2.42422C6.236 1.68752 8.402 1.88262 10.46 4.02072C10.601 4.16762 10.796 4.25062 11 4.25062C11.204 4.25062 11.399 4.16762 11.54 4.02072C13.598 1.88262 15.764 1.68752 17.376 2.42422C19.035 3.18252 20.25 4.98622 20.25 7.13712C20.25 9.33452 19.351 11.0282 18.062 12.4798C16.999 13.6761 15.713 14.6676 14.459 15.6346C14.161 15.8643 13.865 16.0926 13.574 16.3219C13.048 16.7366 12.579 17.1005 12.126 17.3648C11.674 17.6293 11.31 17.75 11 17.75C10.69 17.75 10.326 17.6293 9.874 17.3648C9.421 17.1005 8.952 16.7366 8.426 16.3219C8.135 16.0926 7.839 15.8643 7.541 15.6346C6.287 14.6676 5.001 13.6761 3.938 12.4798C2.6492 11.0282 1.75 9.33452 1.75 7.13712C1.75 4.98622 2.9654 3.18252 4.624 2.42422ZM11 2.45882C8.688 0.39022 6.099 0.10092 4.001 1.06002C1.7847 2.07292 0.25 4.42502 0.25 7.13712C0.25 9.80262 1.3605 11.8361 2.8167 13.4758C3.983 14.7889 5.41 15.888 6.671 16.8586C6.957 17.0786 7.234 17.292 7.497 17.4999C8.01 17.9037 8.56 18.3343 9.117 18.6599C9.674 18.9854 10.31 19.25 11 19.25C11.69 19.25 12.326 18.9854 12.883 18.6599C13.44 18.3343 13.99 17.9037 14.503 17.4999C14.766 17.292 15.043 17.0786 15.329 16.8586C16.59 15.888 18.017 14.7889 19.183 13.4758C20.64 11.8361 21.75 9.80262 21.75 7.13712C21.75 4.42502 20.215 2.07292 17.999 1.06002C15.901 0.10092 13.312 0.39022 11 2.45882Z"
    stroke="black" stroke-width="0.5" />
</svg>
  