<svg width="16" height="16" viewBox="0 0 16 16" fill="none" xmlns="http://www.w3.org/2000/svg">
  <path fill-rule="evenodd" clip-rule="evenodd"
    d="M10 0.833344H7.29572C6.07055 0.833333 5.10013 0.833325 4.34065 0.935434C3.55904 1.04052 2.9264 1.26193 2.4275 1.76084C1.92859 2.25975 1.70718 2.89238 1.60209 3.674C1.49998 4.43347 1.49999 5.40389 1.5 6.62906V10.6667C1.5 11.9148 2.4147 12.9494 3.61034 13.1365C3.70232 13.6458 3.87835 14.0806 4.23223 14.4344C4.63351 14.8357 5.13876 15.0083 5.73883 15.089C6.31681 15.1667 7.05169 15.1667 7.96342 15.1667H10.0366C10.9483 15.1667 11.6832 15.1667 12.2612 15.089C12.8612 15.0083 13.3665 14.8357 13.7678 14.4344C14.169 14.0332 14.3416 13.5279 14.4223 12.9278C14.5 12.3499 14.5 11.615 14.5 10.7033V7.29677C14.5 6.38504 14.5 5.65016 14.4223 5.07218C14.3416 4.4721 14.169 3.96686 13.7678 3.56558C13.4139 3.2117 12.9791 3.03567 12.4698 2.94369C12.2827 1.74804 11.2482 0.833344 10 0.833344ZM11.4196 2.84746C11.2177 2.2575 10.6584 1.83334 10 1.83334H7.33333C6.06212 1.83334 5.15901 1.83441 4.4739 1.92652C3.80317 2.01669 3.41674 2.18581 3.1346 2.46795C2.85246 2.75009 2.68335 3.13652 2.59317 3.80724C2.50106 4.49235 2.5 5.39546 2.5 6.66668V10.6667C2.5 11.325 2.92416 11.8844 3.51411 12.0862C3.49999 11.6796 3.49999 11.2198 3.5 10.7033V7.29676C3.49999 6.38503 3.49998 5.65016 3.57768 5.07218C3.65836 4.4721 3.83096 3.96686 4.23223 3.56558C4.63351 3.1643 5.13876 2.9917 5.73883 2.91103C6.31681 2.83332 7.05169 2.83333 7.96342 2.83334H10.0366C10.5531 2.83334 11.0129 2.83333 11.4196 2.84746ZM4.93934 4.27268C5.12385 4.08818 5.3829 3.96788 5.87208 3.90211C6.37565 3.83441 7.04306 3.83334 8 3.83334H10C10.9569 3.83334 11.6244 3.83441 12.1279 3.90211C12.6171 3.96788 12.8762 4.08818 13.0607 4.27268C13.2452 4.45719 13.3655 4.71624 13.4312 5.20542C13.4989 5.70899 13.5 6.3764 13.5 7.33334V10.6667C13.5 11.6236 13.4989 12.291 13.4312 12.7946C13.3655 13.2838 13.2452 13.5428 13.0607 13.7273C12.8762 13.9118 12.6171 14.0321 12.1279 14.0979C11.6244 14.1656 10.9569 14.1667 10 14.1667H8C7.04306 14.1667 6.37565 14.1656 5.87208 14.0979C5.3829 14.0321 5.12385 13.9118 4.93934 13.7273C4.75483 13.5428 4.63453 13.2838 4.56877 12.7946C4.50106 12.291 4.5 11.6236 4.5 10.6667V7.33334C4.5 6.3764 4.50106 5.70899 4.56877 5.20542C4.63453 4.71624 4.75483 4.45719 4.93934 4.27268Z"
    fill="#80878E" />
</svg>
  