<svg width="80" height="78" viewBox="0 0 80 78" fill="none" xmlns="http://www.w3.org/2000/svg">
  <path
    d="M4.44876 0.153974C2.87693 -0.369976 1.17797 0.479504 0.65403 2.05132C0.13009 3.62312 0.97957 5.32212 2.5514 5.84602L3.61104 6.19932C6.3167 7.10112 8.1055 7.70222 9.4233 8.31522C10.6711 8.89572 11.2106 9.36292 11.5563 9.84252C11.902 10.3221 12.1746 10.9817 12.3307 12.3491C12.4955 13.7931 12.5001 15.6802 12.5001 18.5321V29.2195C12.5 34.6899 12.4999 39.0991 12.9662 42.567C13.4502 46.1674 14.4858 49.1989 16.8935 51.6066C19.3011 54.0143 22.3326 55.0498 25.9331 55.5339C29.4009 56.0001 33.8102 56.0001 39.2805 56H71.5001C73.1569 56 74.5001 54.6568 74.5001 53C74.5001 51.3431 73.1569 50 71.5001 50H39.5001C33.7584 50 29.754 49.9936 26.7326 49.5874C23.7975 49.1928 22.2432 48.471 21.1361 47.364C20.7493 46.9772 20.4096 46.5358 20.1144 46H59.7339C61.5273 46.0001 63.1049 46.0002 64.4146 45.8588C65.8322 45.7057 67.2058 45.3657 68.4981 44.5136C69.7904 43.6614 70.644 42.5328 71.3432 41.2901C71.989 40.1421 72.6104 38.692 73.3167 37.0437L75.184 32.6866C76.7219 29.0986 78.0085 26.0968 78.6525 23.6554C79.3244 21.1084 79.4994 18.4492 77.9144 16.0456C76.3295 13.642 73.8164 12.7552 71.2106 12.3695C68.7129 11.9997 65.4471 11.9998 61.5433 12H18.3271C18.3161 11.888 18.3044 11.7775 18.292 11.6685C18.0706 9.72922 17.5881 7.94982 16.4237 6.33432C15.2594 4.71882 13.7238 3.69842 11.954 2.87512C10.2891 2.10062 8.1718 1.39492 5.6663 0.559824L4.44876 0.153974ZM18.5001 18H61.3016C65.5107 18 68.3265 18.0079 70.332 18.3048C72.2808 18.5933 72.7119 19.0551 72.9054 19.3485C73.0989 19.642 73.3535 20.2201 72.851 22.125C72.3339 24.0853 71.232 26.6765 69.5739 30.5453L67.8596 34.5453C67.0783 36.3684 66.582 37.5161 66.1139 38.3483C65.6814 39.117 65.4057 39.3657 65.1952 39.5045C64.9847 39.6433 64.6474 39.7988 63.7705 39.8935C62.8212 39.996 61.5709 40 59.5873 40H18.727C18.5043 37.2178 18.5001 33.6879 18.5001 29V18.3656C18.5001 18.2428 18.5001 18.121 18.5001 18Z"
    fill="#80878E" />
  <path
    d="M16.5001 69C16.5001 73.9706 20.5295 78 25.5001 78C30.4706 78 34.5001 73.9706 34.5001 69C34.5001 64.0294 30.4706 60 25.5001 60C20.5295 60 16.5001 64.0294 16.5001 69ZM25.5001 72C23.8432 72 22.5001 70.6569 22.5001 69C22.5001 67.3431 23.8432 66 25.5001 66C27.1569 66 28.5001 67.3431 28.5001 69C28.5001 70.6569 27.1569 72 25.5001 72Z"
    fill="#80878E" />
  <path
    d="M61.5001 78.0003C56.5295 78.0003 52.5001 73.9709 52.5001 69.0003C52.5001 64.0297 56.5295 60.0003 61.5001 60.0003C66.4706 60.0003 70.5001 64.0297 70.5001 69.0003C70.5001 73.9709 66.4706 78.0003 61.5001 78.0003ZM58.5001 69.0003C58.5001 70.6572 59.8432 72.0003 61.5001 72.0003C63.1569 72.0003 64.5001 70.6572 64.5001 69.0003C64.5001 67.3434 63.1569 66.0003 61.5001 66.0003C59.8432 66.0003 58.5001 67.3434 58.5001 69.0003Z"
    fill="#80878E" />
</svg>
  