<svg width="23" height="22" viewBox="0 0 23 22" fill="none" xmlns="http://www.w3.org/2000/svg">
  <path fill-rule="evenodd" clip-rule="evenodd"
    d="M8.65316 4.40838L8.32547 4.99623C7.96553 5.64194 7.78555 5.96479 7.50494 6.17781C7.22433 6.39083 6.87485 6.4699 6.17589 6.62805L5.53954 6.77203C3.07986 7.32856 1.85002 7.60682 1.55742 8.54773C1.26482 9.4886 2.10325 10.4691 3.7801 12.4299L4.21392 12.9372C4.69043 13.4944 4.92868 13.773 5.03586 14.1177C5.14305 14.4624 5.10703 14.8341 5.03498 15.5776L4.9694 16.2544C4.71588 18.8706 4.58912 20.1787 5.35515 20.7602C6.12118 21.3417 7.27268 20.8115 9.5757 19.7512L10.1715 19.4768C10.8259 19.1755 11.1531 19.0248 11.5 19.0248C11.8469 19.0248 12.1741 19.1755 12.8285 19.4768L13.4243 19.7512C15.7273 20.8115 16.8788 21.3417 17.6449 20.7602C18.4109 20.1787 18.2841 18.8706 18.0306 16.2544L17.965 15.5776C17.893 14.8341 17.857 14.4624 17.9641 14.1177C18.0713 13.773 18.3096 13.4944 18.7861 12.9372L19.2199 12.4299C20.8968 10.4691 21.7352 9.4886 21.4426 8.54773C21.15 7.60682 19.9201 7.32856 17.4605 6.77203L16.8241 6.62805C16.1251 6.4699 15.7757 6.39083 15.4951 6.17781C15.2144 5.96479 15.0345 5.64193 14.6745 4.99623L14.3468 4.40837C13.0802 2.13612 12.4469 1 11.5 1C10.5531 1 9.9198 2.13613 8.65316 4.40838Z"
    stroke="#80878E" stroke-width="1.5" />
</svg>
  