<svg width="20" height="20" viewBox="0 0 20 20" fill="none" xmlns="http://www.w3.org/2000/svg">
  <path fill-rule="evenodd" clip-rule="evenodd"
    d="M18.3327 10C18.3327 14.6024 14.6017 18.3334 9.99935 18.3334C5.39698 18.3334 1.66602 14.6024 1.66602 10C1.66602 5.39765 5.39698 1.66669 9.99935 1.66669C14.6017 1.66669 18.3327 5.39765 18.3327 10ZM9.99935 14.7917C10.3445 14.7917 10.6243 14.5119 10.6243 14.1667V9.16669C10.6243 8.82151 10.3445 8.54169 9.99935 8.54169C9.65417 8.54169 9.37435 8.82151 9.37435 9.16669V14.1667C9.37435 14.5119 9.65417 14.7917 9.99935 14.7917ZM9.99935 5.83335C10.4596 5.83335 10.8327 6.20645 10.8327 6.66669C10.8327 7.12692 10.4596 7.50002 9.99935 7.50002C9.53911 7.50002 9.16602 7.12692 9.16602 6.66669C9.16602 6.20645 9.53911 5.83335 9.99935 5.83335Z"
    fill="#1890FF" />
</svg>
  