<svg width="16" height="16" viewBox="0 0 16 16" fill="none" xmlns="http://www.w3.org/2000/svg">
  <path
    d="M12.0026 7.99998C12.0026 10.2091 10.2117 12 8.0026 12C5.79347 12 4.0026 10.2091 4.0026 7.99998C4.0026 5.79084 5.79347 3.99997 8.0026 3.99997C10.2117 3.99997 12.0026 5.79084 12.0026 7.99998Z"
    fill="white" />
  <path
    d="M8.0026 0.833313C8.27875 0.833313 8.5026 1.05718 8.5026 1.33332V1.99997C8.5026 2.27612 8.27875 2.49997 8.0026 2.49997C7.72646 2.49997 7.5026 2.27612 7.5026 1.99997V1.33332C7.5026 1.05718 7.72646 0.833313 8.0026 0.833313ZM2.93501 2.93238C3.13027 2.73712 3.44686 2.73712 3.64212 2.93238L3.90401 3.19427C4.09927 3.38954 4.09927 3.70613 3.90401 3.90139C3.70875 4.09665 3.39216 4.09665 3.1969 3.90139L2.93501 3.63949C2.73975 3.44423 2.73975 3.12764 2.93501 2.93238ZM13.07 2.93255C13.2653 3.12782 13.2653 3.4444 13.07 3.63966L12.8081 3.90156C12.6129 4.09682 12.2963 4.09682 12.101 3.90156C11.9058 3.7063 11.9058 3.38971 12.101 3.19445L12.3629 2.93255C12.5582 2.73729 12.8748 2.73729 13.07 2.93255ZM0.835938 7.99998C0.835938 7.72383 1.0598 7.49998 1.33594 7.49998H2.0026C2.27875 7.49998 2.5026 7.72383 2.5026 7.99998C2.5026 8.27612 2.27875 8.49998 2.0026 8.49998H1.33594C1.0598 8.49998 0.835938 8.27612 0.835938 7.99998ZM13.5026 7.99998C13.5026 8.27612 13.7265 8.49998 14.0026 8.49998H14.6693C14.9454 8.49998 15.1693 8.27612 15.1693 7.99998C15.1693 7.72383 14.9454 7.49998 14.6693 7.49998H14.0026C13.7265 7.49998 13.5026 7.72383 13.5026 7.99998ZM12.101 12.0984C12.2963 11.9032 12.6129 11.9032 12.8081 12.0984L13.07 12.3603C13.2653 12.5556 13.2653 12.8722 13.07 13.0674C12.8748 13.2627 12.5582 13.2627 12.3629 13.0674L12.101 12.8055C11.9058 12.6103 11.9058 12.2937 12.101 12.0984ZM3.90401 12.0986C4.09927 12.2939 4.09927 12.6104 3.90401 12.8057L3.64212 13.0676C3.44686 13.2629 3.13027 13.2629 2.93501 13.0676C2.73975 12.8723 2.73975 12.5557 2.93501 12.3605L3.1969 12.0986C3.39216 11.9033 3.70875 11.9033 3.90401 12.0986ZM8.0026 13.5C8.27875 13.5 8.5026 13.7239 8.5026 14V14.6667C8.5026 14.9428 8.27875 15.1667 8.0026 15.1667C7.72646 15.1667 7.5026 14.9428 7.5026 14.6667V14C7.5026 13.7239 7.72646 13.5 8.0026 13.5Z"
    fill="white" />
</svg>
  