<svg xmlns="http://www.w3.org/2000/svg" width="25" height="24" viewBox="0 0 25 24" fill="none">
  <path fill-rule="evenodd" clip-rule="evenodd"
    d="M6.07801 5.34262C4.33444 7.02492 3.25 9.38581 3.25 12C3.25 17.1086 7.39137 21.25 12.5 21.25C12.6275 21.25 12.7544 21.2474 12.8807 21.2423C12.6752 20.3307 12.6474 19.1051 13.274 17.9243C13.9261 16.6955 15.2762 16.1622 16.2689 15.9182C16.789 15.7904 17.2708 15.7273 17.6211 15.6959C17.7972 15.6801 17.9423 15.6721 18.0452 15.668C18.0966 15.666 18.1377 15.6649 18.167 15.6644L18.2019 15.6639L18.2104 15.6638C19.8829 15.6464 20.6364 15.1025 21.0363 14.5836C21.3779 14.1404 21.5069 13.6971 21.6377 13.2475C21.6543 13.1903 21.671 13.133 21.6881 13.0756C21.729 12.7227 21.75 12.3638 21.75 12C21.75 9.47592 20.739 7.18797 19.0999 5.51898C19.0912 5.55304 19.0823 5.5866 19.0732 5.6196C18.9104 6.21256 18.6475 6.82114 18.3618 7.25475C18.1059 7.64313 17.6095 8.03492 17.1975 8.33094C16.9263 8.52578 16.644 8.6913 16.3879 8.83888C16.357 8.85672 16.3265 8.87428 16.2963 8.8916C16.0683 9.02278 15.8631 9.14077 15.6656 9.27123C15.2338 9.55655 14.8997 9.86363 14.6748 10.3273C14.5961 10.4897 14.5936 10.6481 14.6402 10.8177C14.7148 11.0892 14.7656 11.3946 14.7664 11.706C14.7681 12.355 14.4375 12.8817 14.0126 13.2241C13.5928 13.5625 13.0441 13.756 12.4918 13.75C10.0365 13.7231 8.52692 11.7306 8.32782 9.51448C8.24861 8.63293 7.86212 7.74121 7.37411 6.96185C6.92593 6.2461 6.42094 5.67095 6.07801 5.34262ZM7.24505 4.38662C7.6601 4.80462 8.18084 5.42381 8.64544 6.16579C9.20296 7.05616 9.71374 8.17759 9.8218 9.38025C9.97276 11.0605 11.0349 12.234 12.5082 12.25C12.7108 12.2523 12.9212 12.1772 13.0714 12.0562C13.2165 11.9393 13.2667 11.8158 13.2664 11.7099C13.266 11.5544 13.2398 11.3825 13.1937 11.2148C13.0726 10.7736 13.0553 10.2292 13.3252 9.67271C13.7102 8.87891 14.2808 8.38838 14.8388 8.01971C15.0779 7.86171 15.326 7.71918 15.5498 7.59055C15.58 7.57322 15.6097 7.55613 15.6389 7.5393C15.8941 7.39218 16.1182 7.25939 16.3222 7.11277C16.7533 6.80305 17.026 6.55581 17.1092 6.42947C17.2917 6.15255 17.4969 5.69533 17.6267 5.2225C17.7296 4.84787 17.7581 4.56036 17.7485 4.38216C16.2573 3.35281 14.449 2.75 12.5 2.75C10.5481 2.75 8.73748 3.35455 7.24505 4.38662ZM23.1792 13.2403C23.226 12.8333 23.25 12.4195 23.25 12C23.25 6.06294 18.4371 1.25 12.5 1.25C6.56294 1.25 1.75 6.06294 1.75 12C1.75 17.9371 6.56294 22.75 12.5 22.75C17.9604 22.75 22.4699 18.6789 23.1588 13.4064C23.1771 13.3429 23.1929 13.29 23.2071 13.2501L23.1792 13.2403ZM20.4047 16.8066C19.8091 17.0249 19.0912 17.1547 18.2261 17.1638L18.2182 17.1638V17.1638L18.2156 17.1638L18.195 17.1641C18.1755 17.1645 18.1449 17.1652 18.1044 17.1668C18.0233 17.1701 17.9034 17.1766 17.7552 17.1899C17.4571 17.2166 17.0537 17.27 16.6269 17.3749C15.7257 17.5964 14.935 17.9942 14.599 18.6274C14.1435 19.4857 14.2085 20.4196 14.3784 21.0592C16.9274 20.5334 19.0931 18.9589 20.4047 16.8066Z"
    fill="black" />
</svg>