<svg width="20" height="20" viewBox="0 0 20 20" fill="none" xmlns="http://www.w3.org/2000/svg">
  <path
    d="M8.14945 17.5H11.8532C14.454 17.5 15.7544 17.5 16.6886 16.8981C17.093 16.6375 17.4402 16.3027 17.7104 15.9127C18.3346 15.0119 18.3346 13.7579 18.3346 11.2499C18.3346 8.74189 18.3345 7.48809 17.7103 6.58727C17.4401 6.1973 17.0929 5.86247 16.6885 5.6019C15.7543 5 14.4539 5 11.853 5H8.14931C5.54846 5 4.24803 5 3.31387 5.6019C2.90946 5.86247 2.56223 6.1973 2.29202 6.58727C1.66797 7.48789 1.66797 8.74134 1.66797 11.2482L1.66797 11.2499C1.66797 13.7579 1.66797 15.0119 2.29216 15.9127C2.56237 16.3027 2.9096 16.6375 3.31401 16.8981C4.24817 17.5 5.54859 17.5 8.14945 17.5Z"
    fill="#80878E" />
  <path fill-rule="evenodd" clip-rule="evenodd"
    d="M10.0013 9.24094C8.85071 9.24094 7.91797 10.1404 7.91797 11.2499C7.91797 12.3594 8.85071 13.2589 10.0013 13.2589C11.1519 13.2589 12.0846 12.3594 12.0846 11.2499C12.0846 10.1404 11.1519 9.24094 10.0013 9.24094ZM6.52908 11.2499C6.52908 9.4007 8.08365 7.90163 10.0013 7.90163C11.919 7.90163 13.4735 9.4007 13.4735 11.2499C13.4735 13.0991 11.919 14.5982 10.0013 14.5982C8.08365 14.5982 6.52908 13.0991 6.52908 11.2499Z"
    fill="white" />
  <path fill-rule="evenodd" clip-rule="evenodd"
    d="M14.3995 8.57129C14.3995 8.20145 14.7104 7.90163 15.0939 7.90163H15.5569C15.9404 7.90163 16.2513 8.20145 16.2513 8.57129C16.2513 8.94113 15.9404 9.24094 15.5569 9.24094H15.0939C14.7104 9.24094 14.3995 8.94113 14.3995 8.57129Z"
    fill="white" />
  <path fill-rule="evenodd" clip-rule="evenodd"
    d="M6.66797 3.33333C6.66797 2.8731 7.01237 2.5 7.4372 2.5H12.5654C12.9902 2.5 13.3346 2.8731 13.3346 3.33333C13.3346 3.79357 12.9902 4.16667 12.5654 4.16667H7.4372C7.01237 4.16667 6.66797 3.79357 6.66797 3.33333Z"
    fill="#80878E" />
</svg>
  