<svg width="22" height="22" viewBox="0 0 22 22" fill="none" xmlns="http://www.w3.org/2000/svg">
  <path fill-rule="evenodd" clip-rule="evenodd"
    d="M7.95646 1.93191C7.6851 2.36641 7.44114 2.86057 7.22522 3.40039C6.82972 4.38914 6.5225 5.54558 6.31457 6.80057C6.14498 7.8241 6.04294 8.9041 6.01094 10H1.53045C1.60837 9.0422 1.8352 8.10082 2.20411 7.21018C2.66897 6.08792 3.35032 5.0682 4.20926 4.20926C5.0682 3.35032 6.08792 2.66897 7.21018 2.20411C7.45533 2.10257 7.70433 2.01179 7.95646 1.93191ZM10.75 0C9.33829 -1.78814e-07 7.9404 0.278057 6.63615 0.818295C5.3319 1.35853 4.14683 2.15037 3.1486 3.1486C2.15037 4.14683 1.35853 5.3319 0.818295 6.63615C0.278057 7.9404 1.19209e-07 9.33829 0 10.75C-1.19209e-07 12.1617 0.278057 13.5596 0.818295 14.8638C1.35853 16.1681 2.15037 17.3532 3.1486 18.3514C4.14683 19.3496 5.3319 20.1415 6.63615 20.6817C7.9404 21.2219 9.33829 21.5 10.75 21.5C12.1617 21.5 13.5596 21.2219 14.8638 20.6817C16.1681 20.1415 17.3532 19.3496 18.3514 18.3514C19.3496 17.3532 20.1415 16.1681 20.6817 14.8638C21.2219 13.5596 21.5 12.1617 21.5 10.75C21.5 9.33829 21.2219 7.9404 20.6817 6.63615C20.1415 5.3319 19.3496 4.14683 18.3514 3.1486C17.3532 2.15037 16.1681 1.35853 14.8638 0.818296C13.5596 0.278057 12.1617 1.78814e-07 10.75 0ZM10.75 1.5C11.0113 1.5 11.3488 1.62579 11.7412 2.0322C12.1366 2.44161 12.5324 3.08326 12.8821 3.95748C13.2294 4.8259 13.5115 5.87424 13.7056 7.04576C13.8613 7.98569 13.9568 8.98313 13.9884 10L7.51162 10C7.54316 8.98313 7.63866 7.98569 7.79439 7.04576C7.9885 5.87424 8.27056 4.82589 8.61793 3.95747C8.96762 3.08326 9.36341 2.44161 9.75877 2.0322C10.1512 1.62579 10.4887 1.5 10.75 1.5ZM15.4891 10C15.4571 8.9041 15.355 7.82411 15.1854 6.80057C14.9775 5.54558 14.6703 4.38914 14.2748 3.40039C14.0589 2.86057 13.8149 2.36641 13.5435 1.93191C13.7957 2.01179 14.0447 2.10257 14.2898 2.20411C15.4121 2.66897 16.4318 3.35032 17.2907 4.20926C18.1497 5.06821 18.831 6.08792 19.2959 7.21018C19.6648 8.10082 19.8916 9.0422 19.9695 10H15.4891ZM13.9884 11.5C13.9568 12.5169 13.8613 13.5143 13.7056 14.4542C13.5115 15.6258 13.2294 16.6741 12.8821 17.5425C12.5324 18.4167 12.1366 19.0584 11.7412 19.4678C11.3488 19.8742 11.0113 20 10.75 20C10.4887 20 10.1512 19.8742 9.75877 19.4678C9.36341 19.0584 8.96762 18.4167 8.61793 17.5425C8.27056 16.6741 7.9885 15.6258 7.79439 14.4542C7.63866 13.5143 7.54316 12.5169 7.51162 11.5L13.9884 11.5ZM13.5435 19.5681C13.8149 19.1336 14.0589 18.6394 14.2748 18.0996C14.6703 17.1109 14.9775 15.9544 15.1854 14.6994C15.355 13.6759 15.4571 12.5959 15.4891 11.5H19.9695C19.8916 12.4578 19.6648 13.3992 19.2959 14.2898C18.831 15.4121 18.1497 16.4318 17.2907 17.2907C16.4318 18.1497 15.4121 18.831 14.2898 19.2959C14.0447 19.3974 13.7957 19.4882 13.5435 19.5681ZM7.95646 19.5681C7.70433 19.4882 7.45533 19.3974 7.21018 19.2959C6.08792 18.831 5.0682 18.1497 4.20926 17.2907C3.35032 16.4318 2.66897 15.4121 2.20411 14.2898C1.8352 13.3992 1.60837 12.4578 1.53045 11.5H6.01094C6.04294 12.5959 6.14498 13.6759 6.31457 14.6994C6.5225 15.9544 6.82971 17.1109 7.22521 18.0996C7.44114 18.6394 7.6851 19.1336 7.95646 19.5681Z"
    fill="white" />
</svg>
  