<svg width="17" height="18" viewBox="0 0 17 18" fill="none" xmlns="http://www.w3.org/2000/svg">
  <path
    d="M16.8327 9C16.8327 13.6024 13.1017 17.3334 8.49935 17.3334C3.89698 17.3334 0.16602 13.6024 0.16602 9C0.16602 4.39765 3.89698 0.666687 8.49935 0.666687C13.1017 0.666687 16.8327 4.39765 16.8327 9ZM8.49935 13.7917C8.8445 13.7917 9.1243 13.5119 9.1243 13.1667V8.16669C9.1243 7.82151 8.8445 7.54169 8.49935 7.54169C8.15417 7.54169 7.87435 7.82151 7.87435 8.16669V13.1667C7.87435 13.5119 8.15417 13.7917 8.49935 13.7917ZM8.49935 4.83335C8.03911 4.83335 7.66602 5.20645 7.66602 5.66669C7.66602 6.12692 8.03911 6.50002 8.49935 6.50002C8.9596 6.50002 9.3327 6.12692 9.3327 5.66669C9.3327 5.20645 8.9596 4.83335 8.49935 4.83335Z"
    fill="#1890FF" />
</svg>
  