<svg width="87" height="70" viewBox="0 0 87 70" fill="none" xmlns="http://www.w3.org/2000/svg">
  <path fill-rule="evenodd" clip-rule="evenodd"
    d="M31.5 12C25.4249 12 20.5 16.9249 20.5 23C20.5 29.0751 25.4249 34 31.5 34C37.5751 34 42.5 29.0751 42.5 23C42.5 16.9249 37.5751 12 31.5 12ZM26.5 23C26.5 20.2386 28.7386 18 31.5 18C34.2614 18 36.5 20.2386 36.5 23C36.5 25.7614 34.2614 28 31.5 28C28.7386 28 26.5 25.7614 26.5 23Z"
    fill="#4DBAC0" />
  <path fill-rule="evenodd" clip-rule="evenodd"
    d="M31.5 36C26.717 36 22.2384 36.963 18.8447 38.6599C15.6303 40.267 12.5 43.0424 12.5 47L12.4995 47.2499C12.4934 49.2914 12.483 52.7288 15.7409 55.087C17.2527 56.1813 19.2476 56.8793 21.7188 57.3239C24.2128 57.7726 27.4089 58 31.5 58C35.5912 58 38.7872 57.7726 41.2812 57.3239C43.7524 56.8793 45.7473 56.1813 47.2591 55.087C50.517 52.7288 50.5066 49.2914 50.5005 47.2499L50.5 47C50.5 43.0424 47.3697 40.267 44.1554 38.6599C40.7616 36.963 36.283 36 31.5 36ZM18.5 47C18.5 46.5393 18.9514 45.3147 21.5279 44.0264C23.925 42.8279 27.4465 42 31.5 42C35.5535 42 39.075 42.8279 41.4721 44.0264C44.0486 45.3147 44.5 46.5393 44.5 47C44.5 49.4179 44.3461 49.7887 43.7409 50.2267C43.2527 50.5801 42.2476 51.0537 40.2188 51.4187C38.2128 51.7796 35.4089 52 31.5 52C27.5912 52 24.7872 51.7796 22.7812 51.4187C20.7524 51.0537 19.7473 50.5801 19.2591 50.2267C18.6539 49.7887 18.5 49.4179 18.5 47Z"
    fill="#4DBAC0" />
  <path
    d="M71.5 38C73.1569 38 74.5 36.6569 74.5 35C74.5 33.3432 73.1569 32 71.5 32H55.5C53.8431 32 52.5 33.3432 52.5 35C52.5 36.6569 53.8431 38 55.5 38H71.5Z"
    fill="#4DBAC0" />
  <path
    d="M74.5 23C74.5 24.6569 73.1569 26 71.5 26H51.5C49.8431 26 48.5 24.6569 48.5 23C48.5 21.3432 49.8431 20 51.5 20H71.5C73.1569 20 74.5 21.3432 74.5 23Z"
    fill="#4DBAC0" />
  <path
    d="M71.5 50C73.1569 50 74.5 48.6569 74.5 47C74.5 45.3432 73.1569 44 71.5 44H59.5C57.8431 44 56.5 45.3432 56.5 47C56.5 48.6569 57.8431 50 59.5 50H71.5Z"
    fill="#4DBAC0" />
  <path fill-rule="evenodd" clip-rule="evenodd"
    d="M35.2743 1.23599e-06H51.7257C59.0767 -6.05147e-05 64.8993 -0.000109434 69.4561 0.612542C74.1458 1.24305 77.9416 2.57152 80.935 5.56498C83.9285 8.55843 85.257 12.3542 85.8875 17.0439C86.5001 21.6007 86.5001 27.4232 86.5 34.7742V35.2256C86.5001 42.5766 86.5001 48.3993 85.8875 52.9561C85.257 57.6458 83.9285 61.4416 80.935 64.435C77.9416 67.4285 74.1458 68.757 69.4561 69.3875C64.8993 70.0001 59.0768 70.0001 51.7258 70H35.2744C27.9234 70.0001 22.1007 70.0001 17.5439 69.3875C12.8542 68.757 9.05843 67.4285 6.06498 64.435C3.07152 61.4416 1.74305 57.6458 1.11254 52.9561C0.499891 48.3993 0.499939 42.5767 0.500001 35.2257V34.7743C0.499939 27.4233 0.499891 21.6008 1.11254 17.0439C1.74305 12.3542 3.07152 8.55843 6.06498 5.56498C9.05843 2.57152 12.8542 1.24305 17.5439 0.612542C22.1008 -0.000109375 27.9233 -6.05147e-05 35.2743 1.23599e-06ZM18.3434 6.55904C14.319 7.1001 12.0005 8.11478 10.3076 9.80762C8.61478 11.5005 7.6001 13.819 7.05904 17.8434C6.50638 21.9541 6.5 27.3727 6.5 35C6.5 42.6273 6.50638 48.046 7.05904 52.1566C7.6001 56.181 8.61478 58.4996 10.3076 60.1924C12.0005 61.8852 14.319 62.8999 18.3434 63.441C22.4541 63.9936 27.8727 64 35.5 64H51.5C59.1273 64 64.546 63.9936 68.6566 63.441C72.681 62.8999 74.9995 61.8852 76.6924 60.1924C78.3852 58.4996 79.3999 56.181 79.941 52.1566C80.4936 48.046 80.5 42.6273 80.5 35C80.5 27.3727 80.4936 21.9541 79.941 17.8434C79.3999 13.819 78.3852 11.5005 76.6924 9.80762C74.9995 8.11478 72.681 7.1001 68.6566 6.55904C64.546 6.00638 59.1273 6 51.5 6H35.5C27.8727 6 22.4541 6.00638 18.3434 6.55904Z"
    fill="#4DBAC0" />
</svg>