<svg width="20" height="20" viewBox="0 0 20 20" fill="none" xmlns="http://www.w3.org/2000/svg">
  <path
    d="M10.0003 2.29167C9.18494 2.29167 8.48958 2.81253 8.23188 3.54162C8.11685 3.86706 7.75977 4.03764 7.43433 3.92261C7.10888 3.80758 6.9383 3.45051 7.05333 3.12506C7.48203 1.91216 8.63873 1.04167 10.0003 1.04167C11.362 1.04167 12.5187 1.91216 12.9474 3.12506C13.0624 3.45051 12.8918 3.80758 12.5664 3.92261C12.2409 4.03764 11.8839 3.86706 11.7688 3.54162C11.5111 2.81253 10.8158 2.29167 10.0003 2.29167Z"
    fill="#4DBAC0" />
  <path
    d="M2.29199 5.00001C2.29199 4.65483 2.57181 4.37501 2.91699 4.37501H17.0837C17.4289 4.37501 17.7087 4.65483 17.7087 5.00001C17.7087 5.34518 17.4289 5.62501 17.0837 5.62501H2.91699C2.57181 5.62501 2.29199 5.34518 2.29199 5.00001Z"
    fill="#4DBAC0" />
  <path
    d="M4.92956 7.04176C4.9066 6.69735 4.60879 6.43676 4.26437 6.45972C3.91996 6.48268 3.65937 6.7805 3.68233 7.12491L4.06854 12.918C4.13979 13.987 4.19734 14.8504 4.33231 15.528C4.47264 16.2324 4.71133 16.8208 5.20432 17.282C5.69732 17.7432 6.30028 17.9423 7.01249 18.0354C7.69752 18.125 8.56289 18.125 9.63421 18.125H10.3666C11.4379 18.125 12.3033 18.125 12.9883 18.0354C13.7005 17.9423 14.3035 17.7432 14.7965 17.282C15.2895 16.8208 15.5281 16.2324 15.6685 15.528C15.8034 14.8504 15.861 13.987 15.9322 12.918L16.3184 7.12491C16.3414 6.7805 16.0808 6.48268 15.7364 6.45972C15.392 6.43676 15.0942 6.69735 15.0712 7.04176L14.6879 12.791C14.6131 13.9142 14.5597 14.6958 14.4426 15.2838C14.3289 15.8541 14.1703 16.1561 13.9425 16.3692C13.7146 16.5824 13.4028 16.7206 12.8262 16.796C12.2317 16.8738 11.4483 16.875 10.3226 16.875H9.67816C8.55245 16.875 7.76912 16.8738 7.17461 16.796C6.59795 16.7206 6.28615 16.5824 6.0583 16.3692C5.83046 16.1561 5.67185 15.8541 5.55822 15.2838C5.44108 14.6958 5.38773 13.9142 5.31285 12.791L4.92956 7.04176Z"
    fill="#4DBAC0" />
  <path
    d="M7.85487 8.54477C8.19834 8.51043 8.50462 8.76102 8.53896 9.10448L8.95563 13.2711C8.98998 13.6146 8.73939 13.9209 8.39592 13.9552C8.05246 13.9896 7.74618 13.739 7.71183 13.3955L7.29517 9.22886C7.26082 8.8854 7.51141 8.57912 7.85487 8.54477Z"
    fill="#4DBAC0" />
  <path
    d="M12.7056 9.22886C12.74 8.8854 12.4894 8.57912 12.1459 8.54477C11.8025 8.51043 11.4962 8.76102 11.4618 9.10448L11.0452 13.2711C11.0108 13.6146 11.2614 13.9209 11.6049 13.9552C11.9483 13.9896 12.2546 13.739 12.289 13.3955L12.7056 9.22886Z"
    fill="#4DBAC0" />
</svg>
  