<svg width="22" height="19" viewBox="0 0 22 19" fill="none" xmlns="http://www.w3.org/2000/svg">
  <path
    d="M1 7.1371C1 12 5.01943 14.5914 7.96173 16.9109C9 17.7294 10 18.5 11 18.5C12 18.5 13 17.7294 14.0383 16.9109C16.9806 14.5914 21 12 21 7.1371C21 2.27416 15.4998 -1.17454 11 3.50063C6.50016 -1.17454 1 2.27416 1 7.1371Z"
    fill="white" />
  <path
    d="M7.96173 16.9109L7.65219 17.3035L7.65219 17.3035L7.96173 16.9109ZM11 3.50063L10.6398 3.84737C10.734 3.9453 10.8641 4.00063 11 4.00063C11.1359 4.00063 11.266 3.9453 11.3602 3.84737L11 3.50063ZM14.0383 16.9109L13.7287 16.5182L13.7287 16.5182L14.0383 16.9109ZM8.27127 16.5182C6.77045 15.3351 5.08543 14.148 3.75136 12.6458C2.43443 11.1629 1.5 9.41252 1.5 7.1371H0.5C0.5 9.72461 1.57528 11.7014 3.00365 13.3098C4.41487 14.8989 6.21071 16.1672 7.65219 17.3035L8.27127 16.5182ZM1.5 7.1371C1.5 4.8927 2.76859 2.99759 4.52043 2.19682C6.24074 1.41046 8.5178 1.64273 10.6398 3.84737L11.3602 3.1539C8.98236 0.683364 6.25942 0.302401 4.1047 1.28733C1.98149 2.25786 0.5 4.51856 0.5 7.1371H1.5ZM7.65219 17.3035C8.16673 17.7092 8.70317 18.1286 9.24295 18.4441C9.78257 18.7594 10.3731 19 11 19V18C10.6269 18 10.2174 17.8553 9.74748 17.5807C9.27769 17.3062 8.79501 16.9311 8.27127 16.5182L7.65219 17.3035ZM14.3478 17.3035C15.7893 16.1672 17.5851 14.8989 18.9964 13.3098C20.4247 11.7014 21.5 9.72461 21.5 7.1371H20.5C20.5 9.41252 19.5656 11.1629 18.2486 12.6458C16.9146 14.148 15.2295 15.3351 13.7287 16.5182L14.3478 17.3035ZM21.5 7.1371C21.5 4.51856 20.0185 2.25786 17.8953 1.28733C15.7406 0.302401 13.0176 0.683364 10.6398 3.1539L11.3602 3.84737C13.4822 1.64273 15.7593 1.41046 17.4796 2.19682C19.2314 2.99759 20.5 4.8927 20.5 7.1371H21.5ZM13.7287 16.5182C13.205 16.9311 12.7223 17.3062 12.2525 17.5807C11.7826 17.8553 11.3731 18 11 18V19C11.6269 19 12.2174 18.7594 12.757 18.4441C13.2968 18.1286 13.8333 17.7092 14.3478 17.3035L13.7287 16.5182Z"
    fill="black" />
</svg>