<svg width="20" height="20" viewBox="0 0 20 20" fill="none" xmlns="http://www.w3.org/2000/svg">
  <path fill-rule="evenodd" clip-rule="evenodd"
    d="M4.68827 3.68682C3.30578 4.31876 2.29297 5.82185 2.29297 7.61424C2.29297 9.4454 3.04232 10.8569 4.11654 12.0665C5.00191 13.0634 6.07367 13.8897 7.11891 14.6955C7.36717 14.8869 7.61393 15.0771 7.85634 15.2682C8.2947 15.6138 8.68574 15.9171 9.06264 16.1373C9.43975 16.3577 9.7433 16.4583 10.0013 16.4583C10.2593 16.4583 10.5629 16.3577 10.94 16.1373C11.3169 15.9171 11.7079 15.6138 12.1463 15.2682C12.3887 15.0771 12.6354 14.8869 12.8837 14.6955C13.9289 13.8897 15.0007 13.0634 15.8861 12.0665C16.9603 10.8569 17.7096 9.4454 17.7096 7.61424C17.7096 5.82185 16.6968 4.31876 15.3143 3.68682C13.9712 3.07288 12.1666 3.23547 10.4516 5.01727C10.3338 5.13968 10.1712 5.20885 10.0013 5.20885C9.8314 5.20885 9.66882 5.13968 9.551 5.01727C7.83602 3.23547 6.03136 3.07288 4.68827 3.68682ZM10.0013 3.71567C8.07459 1.99186 5.9171 1.75071 4.1686 2.54995C2.3219 3.39409 1.04297 5.35418 1.04297 7.61424C1.04297 9.83551 1.96838 11.53 3.1819 12.8965C4.1537 13.9908 5.34316 14.9066 6.39366 15.7155C6.63179 15.8988 6.86279 16.0767 7.08248 16.2499C7.50935 16.5864 7.96759 16.9452 8.43199 17.2166C8.89618 17.4878 9.42597 17.7083 10.0013 17.7083C10.5766 17.7083 11.1064 17.4878 11.5706 17.2166C12.035 16.9452 12.4933 16.5864 12.9201 16.2499C13.1398 16.0767 13.3708 15.8988 13.6089 15.7155C14.6594 14.9066 15.8489 13.9908 16.8207 12.8965C18.0342 11.53 18.9596 9.83551 18.9596 7.61424C18.9596 5.35418 17.6807 3.39409 15.834 2.54995C14.0855 1.75071 11.928 1.99186 10.0013 3.71567Z"
    fill="#80878E" />
</svg>
  