<svg width="80" height="78" viewBox="0 0 80 78" fill="none" xmlns="http://www.w3.org/2000/svg">
  <path
    d="M4.44852 0.153974C2.87669 -0.369976 1.17773 0.479504 0.653791 2.05132C0.129841 3.62312 0.979321 5.32212 2.55115 5.84602L3.6108 6.19932C6.3164 7.10112 8.1052 7.70222 9.423 8.31522C10.6709 8.89572 11.2104 9.36292 11.556 9.84252C11.9017 10.3221 12.1743 10.9817 12.3304 12.3491C12.4953 13.7931 12.4998 15.6802 12.4998 18.5321V29.2195C12.4998 34.6899 12.4997 39.0991 12.9659 42.567C13.45 46.1674 14.4856 49.1989 16.8932 51.6066C19.3009 54.0143 22.3324 55.0498 25.9328 55.5339C29.4007 56.0001 33.8099 56.0001 39.2803 56H71.4998C73.1567 56 74.4998 54.6568 74.4998 53C74.4998 51.3431 73.1567 50 71.4998 50H39.4998C33.7582 50 29.7537 49.9936 26.7323 49.5874C23.7972 49.1928 22.2429 48.471 21.1359 47.364C20.7491 46.9772 20.4093 46.5358 20.1141 46H59.7337C61.5271 46.0001 63.1047 46.0002 64.4144 45.8588C65.832 45.7057 67.2056 45.3657 68.4979 44.5136C69.7902 43.6614 70.6438 42.5328 71.3429 41.2901C71.9888 40.1421 72.6101 38.692 73.3165 37.0437L75.1838 32.6866C76.7217 29.0986 78.0083 26.0968 78.6523 23.6554C79.3242 21.1084 79.4991 18.4492 77.9142 16.0456C76.3292 13.642 73.8161 12.7552 71.2104 12.3695C68.7127 11.9997 65.4468 11.9998 61.5431 12H18.3269C18.3159 11.888 18.3042 11.7775 18.2917 11.6685C18.0703 9.72922 17.5879 7.94982 16.4235 6.33432C15.2591 4.71882 13.7235 3.69842 11.9538 2.87512C10.2889 2.10062 8.1716 1.39492 5.6661 0.559824L4.44852 0.153974ZM18.4998 18H61.3014C65.5105 18 68.3263 18.0079 70.3317 18.3048C72.2806 18.5933 72.7116 19.0551 72.9051 19.3485C73.0986 19.642 73.3533 20.2201 72.8508 22.125C72.3337 24.0853 71.2317 26.6765 69.5737 30.5453L67.8594 34.5453C67.078 36.3684 66.5818 37.5161 66.1136 38.3483C65.6812 39.117 65.4054 39.3657 65.1949 39.5045C64.9844 39.6433 64.6472 39.7988 63.7703 39.8935C62.821 39.996 61.5706 40 59.5871 40H18.7267C18.5041 37.2178 18.4998 33.6879 18.4998 29V18.3656C18.4998 18.2428 18.4999 18.121 18.4998 18Z"
    fill="#80878E" />
  <path
    d="M16.4998 69C16.4998 73.9706 20.5293 78 25.4998 78C30.4704 78 34.4998 73.9706 34.4998 69C34.4998 64.0294 30.4704 60 25.4998 60C20.5293 60 16.4998 64.0294 16.4998 69ZM25.4998 72C23.843 72 22.4998 70.6569 22.4998 69C22.4998 67.3431 23.843 66 25.4998 66C27.1567 66 28.4998 67.3431 28.4998 69C28.4998 70.6569 27.1567 72 25.4998 72Z"
    fill="#80878E" />
  <path
    d="M61.4998 78.0003C56.5293 78.0003 52.4998 73.9709 52.4998 69.0003C52.4998 64.0297 56.5293 60.0003 61.4998 60.0003C66.4704 60.0003 70.4998 64.0297 70.4998 69.0003C70.4998 73.9709 66.4704 78.0003 61.4998 78.0003ZM58.4998 69.0003C58.4998 70.6572 59.843 72.0003 61.4998 72.0003C63.1567 72.0003 64.4998 70.6572 64.4998 69.0003C64.4998 67.3434 63.1567 66.0003 61.4998 66.0003C59.843 66.0003 58.4998 67.3434 58.4998 69.0003Z"
    fill="#80878E" />
</svg>
  