<svg width="25" height="24" viewBox="0 0 25 24" fill="none" xmlns="http://www.w3.org/2000/svg">
  <path fill-rule="evenodd" clip-rule="evenodd"
    d="M2.81998 7.82274C2.30078 8.77128 2.30078 9.91549 2.30078 12.2039V13.725C2.30078 17.6258 2.30078 19.5763 3.47235 20.7881C4.64393 22 6.52954 22 10.3008 22H14.3008C18.072 22 19.9576 22 21.1292 20.7881C22.3008 19.5763 22.3008 17.6258 22.3008 13.725V12.2039C22.3008 9.91549 22.3008 8.77128 21.7816 7.82274C21.2624 6.87421 20.3138 6.28551 18.4167 5.10812L16.4167 3.86687C14.4114 2.62229 13.4087 2 12.3008 2C11.1928 2 10.1902 2.62229 8.18481 3.86687L6.18481 5.10813C4.28773 6.28551 3.33918 6.87421 2.81998 7.82274ZM11.5508 18C11.5508 18.4142 11.8866 18.75 12.3008 18.75C12.715 18.75 13.0508 18.4142 13.0508 18V15C13.0508 14.5858 12.715 14.25 12.3008 14.25C11.8866 14.25 11.5508 14.5858 11.5508 15V18Z"
    fill="#4DBAC0" />
</svg>
  