<svg width="30" height="30" viewBox="0 0 30 30" fill="none" xmlns="http://www.w3.org/2000/svg">
  <path
    d="M5.66797 0.666687C6.22025 0.666687 6.66797 1.1144 6.66797 1.66669V13.6667C6.66797 16.2091 6.67009 18.0153 6.85431 19.3855C7.03467 20.727 7.37289 21.4998 7.93717 22.0641C8.50145 22.6284 9.2743 22.9666 10.6158 23.147C11.986 23.3312 13.7922 23.3333 16.3346 23.3333H28.3346C28.8869 23.3333 29.3346 23.781 29.3346 24.3333C29.3346 24.8856 28.8869 25.3333 28.3346 25.3333H25.3346V28.3333C25.3346 28.8856 24.8869 29.3333 24.3346 29.3333C23.7824 29.3333 23.3346 28.8856 23.3346 28.3333V25.3333H16.2594C13.8091 25.3333 11.8682 25.3334 10.3493 25.1291C8.78604 24.919 7.52078 24.4762 6.52296 23.4783C5.52514 22.4805 5.08232 21.2153 4.87215 19.652C4.66793 18.1331 4.66795 16.1922 4.66797 13.7419V6.66669H1.66797C1.11568 6.66669 0.667971 6.21897 0.667971 5.66669C0.667971 5.1144 1.11568 4.66669 1.66797 4.66669H4.66797V1.66669C4.66797 1.1144 5.11568 0.666687 5.66797 0.666687ZM19.3868 6.85303C18.0166 6.66881 16.2104 6.66669 13.668 6.66669H9.668C9.1157 6.66669 8.66797 6.21897 8.66797 5.66669C8.66797 5.1144 9.1157 4.66669 9.668 4.66669H13.7432C16.1935 4.66666 18.1344 4.66665 19.6533 4.87087C21.2166 5.08104 22.4818 5.52386 23.4796 6.52168C24.4775 7.51949 24.9203 8.78476 25.1305 10.348C25.3347 11.8669 25.3347 13.8078 25.3346 16.2581V20.3333C25.3346 20.8856 24.8869 21.3333 24.3346 21.3333C23.7824 21.3333 23.3346 20.8856 23.3346 20.3333V16.3333C23.3346 13.7909 23.3325 11.9847 23.1483 10.6145C22.9679 9.27303 22.6297 8.50017 22.0654 7.93589C21.5012 7.37161 20.7283 7.03339 19.3868 6.85303Z"
    fill="#4DBAC0" />
</svg>
  