<svg width="97" height="96" viewBox="0 0 97 96" fill="none" xmlns="http://www.w3.org/2000/svg">
  <path fill-rule="evenodd" clip-rule="evenodd"
    d="M9.44852 9.15395C7.87669 8.63 6.17773 9.47948 5.65379 11.0513C5.12984 12.6231 5.97932 14.3221 7.55115 14.846L8.6108 15.1993C11.3164 16.1011 13.1052 16.7022 14.423 17.3152C15.6709 17.8957 16.2104 18.3629 16.556 18.8425C16.9017 19.3221 17.1743 19.9817 17.3304 21.3491C17.4953 22.7931 17.4998 24.6802 17.4998 27.5321L17.4998 38.2195C17.4998 43.6899 17.4997 48.0991 17.9659 51.567C18.45 55.1674 19.4856 58.1989 21.8932 60.6066C24.3009 63.0143 27.3324 64.0498 30.9328 64.5339C34.4007 65.0001 38.8099 65.0001 44.2803 65H76.4998C78.1567 65 79.4998 63.6568 79.4998 62C79.4998 60.3431 78.1567 59 76.4998 59H44.4998C38.7582 59 34.7537 58.9936 31.7323 58.5874C28.7972 58.1928 27.2429 57.471 26.1359 56.364C25.7491 55.9772 25.4093 55.5358 25.1141 55H64.7337C66.5271 55.0001 68.1047 55.0002 69.4144 54.8588C70.832 54.7057 72.2056 54.3657 73.4979 53.5136C74.7902 52.6614 75.6438 51.5328 76.3429 50.2901C76.9888 49.1421 77.6101 47.692 78.3165 46.0437L80.1838 41.6866C81.7217 38.0986 83.0083 35.0968 83.6523 32.6554C84.3242 30.1084 84.4991 27.4492 82.9142 25.0456C81.3292 22.642 78.8161 21.7552 76.2104 21.3695C73.7127 20.9997 70.4468 20.9998 66.5431 21L23.3269 21C23.3159 20.888 23.3042 20.7775 23.2917 20.6685C23.0703 18.7292 22.5879 16.9498 21.4235 15.3343C20.2591 13.7188 18.7235 12.6984 16.9538 11.8751C15.2889 11.1006 13.1716 10.3949 10.6661 9.5598L9.44852 9.15395ZM23.4998 27C23.4999 27.121 23.4998 27.2428 23.4998 27.3656L23.4998 38C23.4998 42.6879 23.5041 46.2178 23.7267 49H64.5871C66.5706 49 67.821 48.996 68.7703 48.8935C69.6472 48.7988 69.9844 48.6433 70.1949 48.5045C70.4054 48.3657 70.6812 48.117 71.1136 47.3483C71.5818 46.5161 72.078 45.3684 72.8594 43.5453L74.5737 39.5453C76.2317 35.6765 77.3337 33.0853 77.8508 31.125C78.3533 29.2201 78.0986 28.642 77.9051 28.3485C77.7116 28.0551 77.2806 27.5933 75.3317 27.3048C73.3263 27.0079 70.5105 27 66.3014 27H23.4998Z"
    fill="#80878E" />
  <path fill-rule="evenodd" clip-rule="evenodd"
    d="M21.4998 78C21.4998 82.9706 25.5293 87 30.4998 87C35.4704 87 39.4998 82.9706 39.4998 78C39.4998 73.0294 35.4704 69 30.4998 69C25.5293 69 21.4998 73.0294 21.4998 78ZM30.4998 81C28.843 81 27.4998 79.6569 27.4998 78C27.4998 76.3431 28.843 75 30.4998 75C32.1567 75 33.4998 76.3431 33.4998 78C33.4998 79.6569 32.1567 81 30.4998 81Z"
    fill="#80878E" />
  <path fill-rule="evenodd" clip-rule="evenodd"
    d="M66.4998 87.0003C61.5293 87.0003 57.4998 82.9709 57.4998 78.0003C57.4998 73.0297 61.5293 69.0003 66.4998 69.0003C71.4704 69.0003 75.4998 73.0297 75.4998 78.0003C75.4998 82.9709 71.4704 87.0003 66.4998 87.0003ZM63.4998 78.0003C63.4998 79.6572 64.843 81.0003 66.4998 81.0003C68.1567 81.0003 69.4998 79.6572 69.4998 78.0003C69.4998 76.3434 68.1567 75.0003 66.4998 75.0003C64.843 75.0003 63.4998 76.3434 63.4998 78.0003Z"
    fill="#80878E" />
</svg>
  