<svg width="16" height="16" viewBox="0 0 16 16" fill="none" xmlns="http://www.w3.org/2000/svg">
  <path
    d="M1.49028 1.52561C1.22831 1.43829 0.945149 1.57987 0.857825 1.84184C0.770501 2.10381 0.912081 2.38697 1.17405 2.47429L1.35066 2.53316C1.8016 2.68348 2.09973 2.78365 2.31936 2.88582C2.52734 2.98258 2.61726 3.06044 2.67487 3.14037C2.73248 3.22031 2.77792 3.33023 2.80393 3.55813C2.83141 3.7988 2.83217 4.11331 2.83217 4.58864L2.83217 6.36987C2.83215 7.2816 2.83214 8.01648 2.90985 8.59445C2.99053 9.19453 3.16312 9.69978 3.5644 10.1011C3.96568 10.5023 4.47093 10.6749 5.071 10.7556C5.64898 10.8333 6.38385 10.8333 7.29558 10.8333H11.9988C12.275 10.8333 12.4988 10.6094 12.4988 10.3333C12.4988 10.0571 12.275 9.83329 11.9988 9.83329H7.33217C6.37522 9.83329 5.70781 9.83222 5.20425 9.76452C4.71506 9.69875 4.45602 9.57845 4.27151 9.39395C4.11472 9.23716 4.00429 9.02654 3.9343 8.66662H10.6802C11.3198 8.66662 11.6396 8.66662 11.8901 8.50146C12.1405 8.3363 12.2665 8.04235 12.5185 7.45446L12.8042 6.78779C13.3439 5.52858 13.6137 4.89897 13.3173 4.44946C13.0209 3.99995 12.3359 3.99995 10.9659 3.99995H3.82887C3.82494 3.79483 3.81633 3.60976 3.79748 3.4447C3.76058 3.12149 3.68017 2.82491 3.48611 2.55566C3.29205 2.28641 3.03612 2.11635 2.74116 1.97913C2.46367 1.85004 2.11079 1.73243 1.69321 1.59325L1.49028 1.52561Z"
    fill="black" />
  <path
    d="M4.9987 12C5.55098 12 5.9987 12.4477 5.9987 13C5.9987 13.5523 5.55098 14 4.9987 14C4.44641 14 3.9987 13.5523 3.9987 13C3.9987 12.4477 4.44641 12 4.9987 12Z"
    fill="black" />
  <path
    d="M10.9987 12C11.551 12 11.9987 12.4477 11.9987 13C11.9987 13.5523 11.551 14 10.9987 14C10.4464 14 9.9987 13.5523 9.9987 13C9.9987 12.4477 10.4464 12 10.9987 12Z"
    fill="black" />
</svg>
  