<svg width="22" height="30" viewBox="0 0 22 30" fill="none" xmlns="http://www.w3.org/2000/svg">
  <path
    d="M11 2.66669C6.0294 2.66669 2 6.69612 2 11.6667C2 14.3313 3.15678 16.7245 4.99875 18.3739L5.0046 18.3791C5.7468 19.0437 6.3106 19.5485 6.7137 19.9181C7.0932 20.266 7.3938 20.5503 7.5514 20.7447L7.5685 20.7659C7.8635 21.1299 8.1206 21.4471 8.2901 21.8265C8.4597 22.2058 8.5245 22.609 8.5989 23.0716L8.6032 23.0984C8.6413 23.3355 8.6566 23.6268 8.6627 24H13.3373C13.3434 23.6268 13.3587 23.3355 13.3968 23.0984L13.4011 23.0716C13.4755 22.609 13.5403 22.2058 13.7099 21.8265C13.8794 21.4471 14.1365 21.1299 14.4315 20.7659L14.4486 20.7447C14.6062 20.5503 14.9068 20.266 15.2863 19.9181C15.6894 19.5485 16.2533 19.0436 16.9955 18.379L17.0012 18.3739C18.8432 16.7245 20 14.3313 20 11.6667C20 6.69612 15.9706 2.66669 11 2.66669ZM13.3248 26H8.6752C8.6796 26.1389 8.6862 26.2604 8.6961 26.3697C8.7233 26.6699 8.7692 26.7788 8.8006 26.8333C8.8884 26.9853 9.0146 27.1116 9.1667 27.1993C9.2212 27.2308 9.3301 27.2767 9.6303 27.3039C9.9443 27.3324 10.3585 27.3333 11 27.3333C11.6415 27.3333 12.0557 27.3324 12.3697 27.3039C12.6699 27.2767 12.7788 27.2308 12.8333 27.1993C12.9854 27.1116 13.1116 26.9853 13.1994 26.8333C13.2308 26.7788 13.2767 26.6699 13.3039 26.3697C13.3138 26.2604 13.3204 26.1389 13.3248 26ZM0 11.6667C0 5.59155 4.92487 0.666687 11 0.666687C17.0751 0.666687 22 5.59155 22 11.6667C22 14.9237 20.5832 17.8512 18.3354 19.8638C17.5862 20.5347 17.0312 21.0317 16.6379 21.3923C16.4412 21.5726 16.2908 21.7134 16.1798 21.8216C16.1245 21.8755 16.0822 21.9181 16.0507 21.9511C16.0351 21.9675 16.0233 21.9802 16.0148 21.9897C16.0061 21.9995 16.0025 22.0039 16.0025 22.0039C15.6556 22.432 15.5805 22.5424 15.5358 22.6425C15.4911 22.7425 15.4589 22.8721 15.3714 23.4161C15.3369 23.6309 15.3333 23.9987 15.3333 25V25.0429C15.3334 25.6293 15.3334 26.1351 15.2958 26.5502C15.256 26.9891 15.1679 27.4237 14.9314 27.8333C14.6681 28.2894 14.2894 28.6681 13.8333 28.9314C13.4237 29.1679 12.9891 29.256 12.5502 29.2957C12.1351 29.3334 11.6294 29.3333 11.043 29.3333H10.957C10.3706 29.3333 9.8649 29.3334 9.4498 29.2957C9.0109 29.256 8.5763 29.1679 8.1667 28.9314C7.7106 28.6681 7.3319 28.2894 7.0686 27.8333C6.8321 27.4237 6.744 26.9891 6.7042 26.5502C6.6666 26.1351 6.6666 25.6293 6.6667 25.043V25C6.6667 23.9987 6.6631 23.6309 6.6286 23.4161C6.5411 22.8721 6.5089 22.7425 6.4642 22.6425C6.4195 22.5424 6.3444 22.432 5.9975 22.0039C5.9975 22.0039 5.9935 21.9991 5.9852 21.9897C5.9767 21.9802 5.9649 21.9675 5.9493 21.9511C5.9178 21.9181 5.8755 21.8755 5.8202 21.8216C5.7092 21.7134 5.5588 21.5726 5.3621 21.3923C4.96881 21.0317 4.41379 20.5347 3.6646 19.8638C1.41684 17.8512 0 14.9237 0 11.6667Z"
    fill="#4DBAC0" />
</svg>
  