<svg width="20" height="20" viewBox="0 0 20 20" fill="none" xmlns="http://www.w3.org/2000/svg">
  <path
    d="M7.62894 4.507C8.68448 2.61346 9.21225 1.66669 10.0013 1.66669C10.7904 1.66669 11.3181 2.61346 12.3737 4.507L12.6467 4.99688C12.9467 5.53497 13.0967 5.80401 13.3305 5.98153C13.5644 6.15904 13.8556 6.22494 14.4381 6.35673L14.9684 6.47671C17.0181 6.94048 18.043 7.17237 18.2868 7.95646C18.5306 8.74056 17.8319 9.55758 16.4346 11.1916L16.073 11.6144C15.6759 12.0787 15.4774 12.3109 15.3881 12.5981C15.2988 12.8853 15.3288 13.1951 15.3888 13.8146L15.4435 14.3787C15.6547 16.5589 15.7604 17.6489 15.122 18.1335C14.4837 18.6181 13.5241 18.1763 11.6049 17.2927L11.1084 17.0641C10.563 16.8129 10.2903 16.6874 10.0013 16.6874C9.71226 16.6874 9.43957 16.8129 8.89421 17.0641L8.3977 17.2927C6.47853 18.1763 5.51895 18.6181 4.88059 18.1335C4.24224 17.6489 4.34787 16.5589 4.55913 14.3787L4.61379 13.8146C4.67382 13.1951 4.70384 12.8853 4.61452 12.5981C4.5252 12.3109 4.32666 12.0787 3.92957 11.6144L3.56805 11.1916C2.17068 9.55758 1.47199 8.74056 1.71582 7.95646C1.95965 7.17237 2.98452 6.94048 5.03425 6.47671L5.56454 6.35673C6.14701 6.22494 6.43825 6.15904 6.67209 5.98153C6.90593 5.80401 7.05591 5.53497 7.35586 4.99688L7.62894 4.507Z"
    fill="#D89614" />
</svg>
  