<svg width="18" height="16" viewBox="0 0 18 16" fill="none" xmlns="http://www.w3.org/2000/svg">
  <path
    d="M3.42773 6.96791C5.8597 2.65597 7.07568 0.5 9.0013 0.5C10.9269 0.5 12.1429 2.65597 14.5749 6.96791L14.8779 7.50522C16.8989 11.0884 17.9094 12.88 16.9961 14.19C16.0828 15.5 13.8233 15.5 9.3044 15.5H8.69825C4.17927 15.5 1.91978 15.5 1.00652 14.19C0.0932499 12.88 1.10373 11.0884 3.12468 7.50523L3.42773 6.96791ZM9.0013 4.04167C8.65612 4.04167 8.3763 4.32149 8.3763 4.66667V8.8333C8.3763 9.1785 8.65612 9.4583 9.0013 9.4583C9.3465 9.4583 9.6263 9.1785 9.6263 8.8333V4.66667C9.6263 4.32149 9.3465 4.04167 9.0013 4.04167ZM9.0013 12.1667C9.4615 12.1667 9.8346 11.7936 9.8346 11.3333C9.8346 10.8731 9.4615 10.5 9.0013 10.5C8.54106 10.5 8.16797 10.8731 8.16797 11.3333C8.16797 11.7936 8.54106 12.1667 9.0013 12.1667Z"
    fill="#FF3141" />
</svg>
  